<svg width="150" height="80" viewBox="0 0 150 80" fill="none" xmlns="http://www.w3.org/2000/svg">
<rect width="150" height="80" fill="white"/>
<path d="M42.7744 45.2262V35.1338H45.4035H48.0326V35.9141V36.6943L48.8129 35.9989C51.1536 33.9465 55.2414 34.3536 57.8027 36.8979C60.8219 39.934 60.8558 45.1074 57.8536 48.2793C55.4789 50.7897 51.3572 51.2477 48.7789 49.2801L48.0326 48.7034V52.0109V55.3185H45.4035H42.7744V45.2262ZM52.7311 45.4976C54.8513 44.5307 55.0549 41.2232 53.0873 39.9171C51.7982 39.069 49.7967 39.2725 48.8637 40.3242C47.863 41.4606 47.7443 43.4112 48.5924 44.5307C49.5422 45.769 51.2384 46.1591 52.7311 45.4976Z" fill="#4E5F6E"/>
<path d="M31.3076 50.2304C30.6461 50.0608 29.6283 49.6707 29.0516 49.3823L28 48.8565L28.9499 47.0416C29.4757 46.0408 29.9337 45.2097 29.9676 45.1758C29.9845 45.1588 30.5613 45.4132 31.2228 45.7525C33.4109 46.872 35.6498 46.7363 35.6498 45.4981C35.6498 44.8196 35.3784 44.65 33.5126 44.192C31.5111 43.7001 30.3747 43.1064 29.764 42.2074C29.323 41.5799 29.2891 41.3933 29.2891 39.9854C29.2891 38.5946 29.34 38.3571 29.798 37.5429C30.9514 35.4227 33.2412 34.4728 36.6336 34.6763C38.2959 34.7612 40.5688 35.3379 40.5688 35.6601C40.5688 35.8637 39.3136 38.3401 39.0083 38.7302C38.8047 39.0016 38.7369 39.0016 37.8549 38.6963C36.2096 38.1196 34.7339 38.3062 34.5303 39.1204C34.3607 39.7819 34.7169 40.0194 36.5319 40.4604C38.4994 40.9523 39.3136 41.3593 40.0939 42.2244C40.908 43.1234 41.1285 43.9036 41.0437 45.3963C40.8741 47.9915 39.161 49.7385 36.1926 50.3831C34.8696 50.6545 32.6815 50.6036 31.3076 50.2304V50.2304Z" fill="#4E5F6E"/>
<path d="M108.501 50.3147C107.313 50.0603 105.023 49.0765 105.023 48.8221C105.023 48.5337 106.906 45.1244 107.025 45.1753C108.84 46.1421 109.62 46.4135 110.672 46.4644C112.046 46.5492 112.656 46.2608 112.656 45.4975C112.656 44.836 112.436 44.6834 110.57 44.2254C107.653 43.513 106.567 42.6988 106.211 40.9517C105.702 38.5262 107.127 36.0497 109.569 35.1168C111.062 34.5571 113.555 34.4723 115.574 34.9472C116.439 35.1508 117.253 35.3713 117.372 35.4561C117.558 35.5748 117.423 35.9649 116.727 37.3219C116.252 38.2548 115.828 39.035 115.811 39.035C115.777 39.035 115.319 38.8824 114.777 38.6958C112.911 38.0513 111.469 38.3566 111.469 39.3913C111.469 39.968 111.656 40.0697 113.538 40.4938C115.76 41.0026 116.778 41.6133 117.541 42.9193C117.931 43.5808 117.999 43.8862 117.999 44.9717C117.982 47.6687 116.371 49.5345 113.386 50.3147C112.215 50.62 109.892 50.62 108.501 50.3147V50.3147Z" fill="#4E5F6E"/>
<path d="M62.0592 49.942C61.9913 49.8912 61.9404 46.5327 61.9404 42.4788V35.1343H64.6543H67.3682V42.5975V50.0608H64.7731C63.3313 50.0608 62.1101 50.0099 62.0592 49.942Z" fill="#4E5F6E"/>
<path d="M69.9131 42.5974V35.1172L72.5931 35.1681L75.2561 35.219V35.9992V36.7795L75.9855 36.1349C78.4449 33.9807 82.9738 34.5405 84.7717 37.2035C85.552 38.3739 85.6877 39.4764 85.6877 45.1078V50.0607H82.9738H80.2599V45.7014C80.2599 43.242 80.1751 41.0539 80.0902 40.6977C79.9885 40.3584 79.6832 39.8835 79.3948 39.646C78.411 38.8149 76.2738 39.1541 75.6462 40.2567C75.4936 40.545 75.4088 41.902 75.3409 45.3113L75.2561 49.9758L72.5931 50.0267L69.9131 50.0776V42.5974V42.5974Z" fill="#4E5F6E"/>
<path d="M88.0964 40.1888L88.1473 30.3L90.8103 30.2491L93.4903 30.1982L93.5242 35.219L93.5751 40.2397L95.6784 37.6954L97.7817 35.1342H101.428H105.075L104.668 35.5921C104.278 36.0331 100.546 40.0871 99.2913 41.427L98.7146 42.0546L102.005 45.888C103.803 48.0083 105.313 49.8062 105.33 49.891C105.364 49.9928 103.973 50.0607 101.683 50.0437H97.9852L95.7802 47.1602L93.5751 44.2766L93.5242 47.1771L93.4903 50.0607H90.7764H88.0625L88.0964 40.1888Z" fill="#4E5F6E"/>
<path d="M63.4677 32.7427C62.1278 32.1999 61.2627 30.9278 61.2627 29.4521C61.2627 27.5014 62.5857 26.1614 64.6381 26.0258C65.588 25.9579 65.8763 26.0088 66.5209 26.365C69.0482 27.7389 68.9973 31.4536 66.4361 32.607C65.6898 32.9462 64.1632 33.0141 63.4677 32.7427Z" fill="#4E5F6E"/>
</svg>
