<svg width="150" height="80" viewBox="0 0 150 80" fill="none" xmlns="http://www.w3.org/2000/svg">
<rect width="150" height="80" fill="white"/>
<path d="M42 54.4416V51.2281L42.8401 51.3121C43.3022 51.3541 43.6803 51.4801 43.6803 51.5851C43.6803 51.6901 43.9743 51.6271 44.3524 51.4381C45.1295 51.039 46.4527 51.1441 47.0408 51.6691C47.4188 52.0052 47.4818 52.0052 48.0069 51.5851C49.0991 50.724 50.9893 51.1861 51.4304 52.4252C51.5564 52.8033 51.6614 54.1265 51.6614 55.3657V57.655H50.8213H49.9812V55.4917C49.9812 53.6434 49.9182 53.2654 49.6031 52.9713C49.0571 52.4883 48.385 52.5303 48.0069 53.0763C47.7549 53.4334 47.6708 54.0845 47.6708 55.5757V57.592H46.8307H45.9906V55.4497C45.9906 53.1394 45.7596 52.6143 44.7724 52.6143C43.9533 52.6143 43.6803 53.3704 43.6803 55.5967V57.655H42.8401H42V54.4416Z" fill="#4E5F6E"/>
<path d="M53.9506 57.1721C52.0393 55.891 52.0393 52.9085 53.9506 51.6273C54.7697 51.0812 55.9038 50.9972 56.765 51.4593C57.227 51.6903 57.3741 51.6903 57.4581 51.5013C57.5211 51.3333 57.8571 51.2703 58.3822 51.3123L59.2433 51.3963L59.1803 54.4837L59.1173 57.5502H58.2772C57.7311 57.5292 57.4581 57.4452 57.5001 57.2772C57.5631 56.9621 57.3531 56.9621 56.702 57.3402C55.9038 57.7812 54.7697 57.7182 53.9506 57.1721ZM57.038 55.5129C57.6261 54.8828 57.5211 53.7066 56.828 53.1185C56.0719 52.4464 55.5468 52.4884 54.7907 53.2236C54.0976 53.9167 54.0136 54.5888 54.5176 55.3029C55.1477 56.206 56.3449 56.311 57.038 55.5129Z" fill="#4E5F6E"/>
<path d="M59.8528 57.4454C59.8528 57.3613 60.2518 56.7313 60.7559 56.0592C61.26 55.3661 61.7221 54.694 61.8271 54.5469C61.9111 54.3789 61.617 53.7908 61.029 52.9717C60.4829 52.2576 60.0838 51.5855 60.1048 51.4805C60.1468 51.3755 60.5459 51.2914 60.987 51.2704C61.7221 51.2494 61.8901 51.3334 62.3522 52.0266C62.6462 52.4466 63.0033 52.7827 63.1083 52.7407C63.2343 52.7197 63.5073 52.3836 63.7384 52.0266C64.1164 51.4385 64.2634 51.3755 65.1666 51.3545C65.7127 51.3545 66.1537 51.3965 66.1537 51.4595C66.1537 51.5225 65.7337 52.1526 65.2086 52.8667C64.6835 53.5808 64.2634 54.2529 64.2634 54.3579C64.2634 54.4629 64.7045 55.114 65.2296 55.8071C66.5528 57.5504 66.5528 57.5924 65.3976 57.5504C64.7045 57.5084 64.3054 57.3824 64.1164 57.1093C63.9484 56.8783 63.6544 56.5002 63.4443 56.2272L63.0873 55.7441L62.4362 56.6682C61.8271 57.5084 61.7011 57.5714 60.8189 57.5924C60.2939 57.6134 59.8528 57.5294 59.8528 57.4454V57.4454Z" fill="#4E5F6E"/>
<path d="M67.078 57.3403C67.015 57.2143 67.015 55.8071 67.036 54.1898L67.099 51.2704H67.8341L68.5692 51.2494L68.6322 54.4419L68.6952 57.6133L67.9181 57.5923C67.4981 57.5713 67.12 57.4663 67.078 57.3403V57.3403Z" fill="#4E5F6E"/>
<path d="M69.7241 54.4624V51.2489H70.5012C70.9423 51.2489 71.3624 51.3329 71.4464 51.438C71.5094 51.543 71.8454 51.522 72.2235 51.3539C73.0216 51.0389 74.2398 51.2069 74.8069 51.711C75.0799 51.942 75.2689 52.005 75.353 51.858C75.815 51.1439 77.3273 50.9339 78.3144 51.459C79.1545 51.879 79.3856 52.7401 79.3856 55.3655V57.6549H78.5454H77.7053V55.5966C77.7053 53.3282 77.4323 52.6141 76.5711 52.6141C75.731 52.6141 75.5 53.1602 75.395 55.4285L75.29 57.5289L74.5128 57.5919L73.7147 57.6339V55.4706C73.7147 53.6013 73.6517 53.2652 73.3157 52.9502C72.7696 52.4671 71.9925 52.5931 71.6774 53.2442C71.5304 53.5593 71.4044 54.5674 71.4044 55.7226V57.6549H70.5642H69.7241V54.4624V54.4624Z" fill="#4E5F6E"/>
<path d="M81.8008 57.2563C80.5406 56.4792 80.3306 56.0591 80.3306 54.3789C80.3306 52.8666 80.3516 52.8036 81.1287 52.0475C81.8638 51.2914 81.9898 51.2494 83.187 51.2494C84.0691 51.2494 84.5102 51.3334 84.6572 51.5644C84.8252 51.8375 84.8672 51.8375 85.0563 51.5434C85.1823 51.3334 85.4553 51.2494 85.9804 51.3124L86.7365 51.3964V54.5049V57.5923H85.8964C85.3293 57.5923 85.0563 57.5083 85.0563 57.3193C85.0563 56.9412 84.8462 56.9622 84.3422 57.3403C83.7751 57.7814 82.5569 57.7394 81.8008 57.2563V57.2563ZM84.6992 55.513C84.8882 55.261 85.0563 54.7569 85.0563 54.2948C85.0563 53.0347 83.9011 52.3416 82.7879 52.9086C82.0948 53.2657 81.9058 53.6227 81.9058 54.4839C81.9058 55.9541 83.7121 56.6262 84.6992 55.513V55.513Z" fill="#4E5F6E"/>
<path d="M66.8675 49.947C66.6784 49.2329 66.9935 48.7498 67.7076 48.6658C68.4007 48.5818 68.8838 48.9388 68.8838 49.5479C68.8838 50.199 68.4847 50.5141 67.6866 50.5141C67.1195 50.5141 66.9725 50.4091 66.8675 49.947Z" fill="#4E5F6E"/>
<path d="M42 34.1737V23H75.5C93.9197 23 109 23.063 109 23.126C109 23.189 107.761 24.4702 106.228 25.9614L103.455 28.6708H95.0959H86.7367V25.8984V23.105L75.605 34.2367L64.4734 45.3683V34.2787C64.4734 28.1878 64.4103 23.21 64.3263 23.21C64.2213 23.21 59.1806 28.1878 53.0897 34.2787L42 45.3683V34.1737V34.1737Z" fill="#4E5F6E"/>
<path d="M86.7363 42.3437V39.4032L89.7398 39.3402C91.378 39.2982 92.7432 39.2772 92.7642 39.2982C92.8272 39.2982 86.8833 45.2631 86.7993 45.2631C86.7573 45.2631 86.7363 43.9399 86.7363 42.3437Z" fill="#4E5F6E"/>
<path d="M86.8623 36.7152C86.7993 36.6312 86.7363 35.371 86.7363 33.8797V31.1913H93.7724C97.637 31.1913 100.808 31.2123 100.808 31.2544C100.808 31.2964 99.5482 32.5776 98.036 34.0898L95.2426 36.8622L91.105 36.8412C88.8366 36.8412 86.9254 36.7782 86.8623 36.7152Z" fill="#4E5F6E"/>
</svg>
