<svg width="150" height="80" viewBox="0 0 150 80" fill="none" xmlns="http://www.w3.org/2000/svg">
<rect width="150" height="80" fill="white"/>
<path d="M108.607 53.9388C107.942 53.701 107.656 53.0828 107.656 51.9176C107.656 50.5623 108.227 49.8252 109.273 49.8252C109.963 49.8252 110.747 50.4434 110.747 50.9665C110.747 51.3945 110.438 51.2994 109.963 50.7763C109.535 50.277 109.154 50.1819 108.655 50.5148C108.441 50.6336 108.37 51.1092 108.417 51.989C108.488 53.2254 108.512 53.273 109.226 53.3443C109.749 53.3919 110.01 53.2967 110.129 53.0352C110.319 52.5359 110.129 52.203 109.654 52.203C109.463 52.203 109.321 52.1079 109.321 51.9652C109.321 51.8463 109.654 51.7274 110.034 51.7274C110.676 51.7274 110.747 51.7988 110.747 52.5359C110.747 52.9639 110.605 53.4394 110.438 53.5821C110.058 53.915 109.059 54.1052 108.607 53.9388V53.9388Z" fill="#4E5F6E"/>
<path d="M76.7441 53.6295C76.7441 53.5106 77.1721 53.3917 77.6952 53.3917C78.5512 53.3917 78.6463 53.3442 78.6463 52.7973C78.6463 52.4406 78.5037 52.2028 78.2897 52.2028C78.0994 52.2028 77.6714 52.084 77.3386 51.9175C76.6014 51.5846 76.5063 50.4433 77.1959 50.0628C77.9092 49.6824 79.1219 49.7537 79.1219 50.1817C79.1219 50.4433 78.8603 50.5384 78.147 50.5384C77.3861 50.5384 77.1959 50.6097 77.2672 50.9426C77.3148 51.1566 77.6952 51.442 78.147 51.6084C79.217 51.9651 79.5261 52.4644 79.1694 53.2491C78.9317 53.7722 78.7414 53.8673 77.8141 53.8673C77.2197 53.8673 76.7441 53.7722 76.7441 53.6295V53.6295Z" fill="#4E5F6E"/>
<path d="M82.2133 52.0841C82.2133 50.3483 82.1895 50.3008 81.6189 50.3008C81.286 50.3008 81.0244 50.2056 81.0244 50.063C81.0244 49.9203 81.6902 49.8252 82.57 49.8252C83.4497 49.8252 84.1155 49.9203 84.1155 50.063C84.1155 50.2056 83.854 50.3008 83.5211 50.3008C82.9504 50.3008 82.9266 50.3483 82.9266 52.0841C82.9266 53.5107 82.8553 53.8674 82.57 53.8674C82.2846 53.8674 82.2133 53.5107 82.2133 52.0841Z" fill="#4E5F6E"/>
<path d="M85.7797 51.9169C86.1601 50.8707 86.5406 49.9434 86.6119 49.872C86.8259 49.6343 87.1112 50.1336 87.6819 51.7267C87.9672 52.5827 88.2764 53.4149 88.3239 53.5814C88.3952 53.724 88.2764 53.8667 88.0861 53.8667C87.8959 53.8667 87.6819 53.6527 87.6106 53.3911C87.5155 53.0583 87.2777 52.9156 86.7784 52.9156C86.2552 52.9156 86.0175 53.0583 85.8986 53.3911C85.8272 53.6527 85.5895 53.8667 85.3992 53.8667C85.1377 53.8667 85.2328 53.4387 85.7797 51.9169ZM87.0637 51.9169C86.9924 51.6078 86.8735 51.3225 86.8259 51.2749C86.6832 51.1323 86.5644 51.2987 86.3979 51.9169C86.2552 52.3449 86.3028 52.44 86.7308 52.44C87.1588 52.44 87.2064 52.3449 87.0637 51.9169Z" fill="#4E5F6E"/>
<path d="M90.2979 51.8463V49.8252H91.6056C92.6043 49.8252 92.9134 49.8965 92.9134 50.1819C92.9134 50.4434 92.6519 50.5385 91.9623 50.5385C91.1776 50.5385 91.0112 50.6099 91.0112 51.0141C91.0112 51.3945 91.1776 51.4896 91.8434 51.4896C92.4141 51.4896 92.6756 51.6085 92.6756 51.8463C92.6756 52.0841 92.4141 52.203 91.8434 52.203C91.0587 52.203 91.0112 52.2505 91.0112 53.0352C91.0112 53.6059 90.8923 53.8674 90.6545 53.8674C90.3692 53.8674 90.2979 53.487 90.2979 51.8463Z" fill="#4E5F6E"/>
<path d="M95.0537 51.8463V49.8252H96.3615C97.3602 49.8252 97.6693 49.8965 97.6693 50.1819C97.6693 50.4434 97.3839 50.5385 96.5993 50.5385C95.6957 50.5385 95.5293 50.6099 95.5293 51.0141C95.5293 51.3945 95.6957 51.4896 96.3615 51.4896C96.9322 51.4896 97.1937 51.6085 97.1937 51.8463C97.1937 52.0841 96.9322 52.203 96.3615 52.203C95.5768 52.203 95.5293 52.2505 95.5293 53.0352C95.5293 53.487 95.4342 53.8674 95.2915 53.8674C95.1488 53.8674 95.0537 53.0352 95.0537 51.8463Z" fill="#4E5F6E"/>
<path d="M99.5703 51.8463C99.5703 50.2056 99.6416 49.8252 99.927 49.8252C100.212 49.8252 100.284 50.2056 100.284 51.8463C100.284 53.487 100.212 53.8674 99.927 53.8674C99.6416 53.8674 99.5703 53.487 99.5703 51.8463Z" fill="#4E5F6E"/>
<path d="M102.424 51.8463C102.424 49.3972 102.662 49.2783 103.85 51.133C104.302 51.8463 104.754 52.4408 104.873 52.4408C104.968 52.4408 105.039 51.8463 105.039 51.133C105.039 50.4196 105.158 49.8252 105.277 49.8252C105.42 49.8252 105.515 50.6574 105.515 51.8463C105.515 53.0114 105.42 53.8674 105.277 53.8674C105.158 53.8674 104.635 53.2492 104.16 52.5121L103.256 51.1568L103.185 52.5121C103.137 53.5108 103.018 53.8674 102.78 53.8674C102.495 53.8674 102.424 53.4632 102.424 51.8463Z" fill="#4E5F6E"/>
<path d="M33.7067 38.0546V29.6135H30.8533C29.284 29.6135 28 29.5422 28 29.4233C28 29.3282 28.7133 28.5198 29.6169 27.64L31.2338 26.0469H37.4636H43.6933V27.8302V29.6135H40.7211H37.7489V38.0546V46.4958H35.7278H33.7067V38.0546Z" fill="#4E5F6E"/>
<path d="M44.5257 46.2824C42.5759 45.8069 41.3157 44.4991 40.8639 42.4542C40.531 41.0038 40.531 36.4146 40.8639 35.2971C41.2444 34.0844 42.3381 32.8004 43.527 32.1822C45.7859 31.0409 49.2575 31.4689 50.8744 33.0858C52.087 34.2747 52.4913 35.63 52.4913 38.4595V40.7898H48.4253H44.3593L44.5257 41.4555C44.811 42.692 45.1201 42.8109 48.4966 42.8822L51.6115 42.9773L49.8519 44.7369L48.1161 46.4964L46.6657 46.4726C45.881 46.4489 44.9299 46.3775 44.5257 46.2824V46.2824ZM48.5917 36.7C48.4015 35.7013 48.0686 35.3684 47.1175 35.1782C46.0713 34.988 45.025 35.416 44.6684 36.1769C44.1215 37.3895 44.2404 37.4609 46.5706 37.4609H48.7581L48.5917 36.7Z" fill="#4E5F6E"/>
<path d="M55.9385 46.0448C54.0839 45.1888 53.2041 43.7859 53.2041 41.6697C53.2041 40.1004 53.9174 38.7926 55.2728 37.8415C56.1763 37.2233 56.4854 37.1519 58.6492 37.0331C61.1697 36.9142 61.3599 36.8191 60.813 35.7728C60.599 35.3686 60.2899 35.3211 58.3163 35.3211C57.0799 35.3211 56.0574 35.2497 56.0574 35.1308C56.0574 35.0357 56.7708 34.2273 57.6743 33.3475C59.1485 31.8733 59.3625 31.7544 60.2899 31.7544C60.8368 31.7544 61.6452 31.8971 62.0732 32.0873C63.0957 32.4915 64.2845 33.8944 64.5937 35.0119C64.7363 35.5113 64.8552 38.2457 64.8552 41.2179V46.4966H63.4761C62.7152 46.4966 61.9781 46.3777 61.8354 46.2351C61.6452 46.0448 61.4312 46.0448 61.0983 46.2351C60.2899 46.6631 57.0323 46.5442 55.9385 46.0448V46.0448ZM60.6228 42.5257C60.8605 42.3117 61.0508 41.8124 61.0508 41.3368V40.5522H59.4577C58.3163 40.5522 57.7457 40.6711 57.4365 40.9564C56.8897 41.4557 56.8897 42.3593 57.4365 42.6684C58.1023 43.0726 60.1234 42.9775 60.6228 42.5257V42.5257Z" fill="#4E5F6E"/>
<path d="M66.7578 39.1249V31.7538H68.1607C68.9454 31.7538 69.6349 31.8489 69.73 31.9678C69.8014 32.1104 70.2294 32.0391 70.7525 31.8251C71.8938 31.3495 74.2954 31.516 75.3654 32.158C76.15 32.6098 76.15 32.6098 76.9823 32.1342C77.648 31.73 78.2187 31.6349 79.8356 31.6349C81.6189 31.6349 81.9994 31.7062 82.9743 32.3006C83.7114 32.7286 84.3296 33.3469 84.7576 34.084L85.4234 35.2015L85.4947 40.8606L85.566 46.496H83.6638H81.7378V41.3838C81.7378 36.2478 81.7378 36.2478 81.1434 35.6771C80.4538 34.9638 79.3838 34.9162 78.6229 35.5344C78.0523 35.9862 78.0523 36.0575 77.9809 41.2411L77.9096 46.496H76.0074H74.1289V41.2649C74.1289 36.3429 74.1051 36.01 73.6534 35.5582C73.0114 34.9162 71.6798 34.9162 71.0378 35.5582C70.586 36.01 70.5623 36.3429 70.5623 41.2649V46.496H68.66H66.7578V39.1249V39.1249Z" fill="#4E5F6E"/>
<path d="M92.6749 46.2818C90.8915 45.7349 89.8929 44.8313 89.0606 43.048C88.5375 41.9066 88.5138 41.6213 88.4424 33.9649L88.3711 26.0469H90.2733H92.1755L92.2469 34.0362L92.3182 42.0255L92.984 42.5962C93.5784 43.1193 93.8638 43.1669 95.8611 43.1669C98.4529 43.1669 98.9998 42.8815 99.3326 41.3835C99.4515 40.8604 99.5704 37.1987 99.5704 33.2515V26.0469H101.354H103.137V33.6082C103.137 41.8115 103.042 42.5486 101.829 44.4033C101.401 45.0215 100.807 45.5209 99.9747 45.9251C98.8809 46.4244 98.4291 46.4958 96.0038 46.472C94.5058 46.472 93.0078 46.3769 92.6749 46.2818V46.2818Z" fill="#4E5F6E"/>
<path d="M107.179 36.1293V26L112.006 26.0951C116.381 26.1664 116.904 26.214 117.784 26.6896C119.924 27.8309 121.065 29.6142 121.065 31.8731C121.041 33.4662 120.613 34.5124 119.448 35.7489C118.093 37.1993 117.165 37.5084 113.789 37.6511L110.745 37.77V42.0024V46.2587H108.962H107.179V36.1293ZM116.666 33.7278C117.712 32.848 117.688 30.7318 116.642 29.9709C116.238 29.7093 115.453 29.6142 113.432 29.6142H110.745V31.8731V34.132H113.456C115.691 34.132 116.262 34.0607 116.666 33.7278V33.7278Z" fill="#4E5F6E"/>
<path d="M55.1074 33.1811V31.7544H56.5816H58.0559L56.653 33.1811C55.8683 33.9657 55.2025 34.6077 55.1788 34.6077C55.1312 34.6077 55.1074 33.9657 55.1074 33.1811Z" fill="#4E5F6E"/>
</svg>
