<svg width="150" height="80" viewBox="0 0 150 80" fill="none" xmlns="http://www.w3.org/2000/svg">
<rect width="150" height="80" fill="white"/>
<path d="M37.0742 36.2197V24.0757H39.4805H41.8867V33.8511V43.6265L49.2408 43.6114L56.5874 43.5889L56.61 33.836L56.625 24.0757H58.9937H61.3623V36.2197V48.3638H49.2183H37.0742V36.2197Z" fill="#4E5F6E"/>
<path d="M63.3926 45.9951V43.6265L73.1153 43.6114L82.8306 43.5889L82.8531 41.0924L82.8682 38.5884H73.1304H63.3926V31.332V24.0757H75.499H87.6055V26.4819V28.8882H77.8677H68.1299L68.1449 31.3546L68.1675 33.8135L77.8902 33.836L87.6055 33.8511V41.1074V48.3638H75.499H63.3926V45.9951Z" fill="#4E5F6E"/>
<path d="M89.6338 36.2197V24.0757H101.815H113.997V36.2197V48.3638H111.591H109.185V38.626V28.8882H101.815H94.4463V38.626V48.3638H92.04H89.6338V36.2197Z" fill="#4E5F6E"/>
<path d="M96.1777 32.9106V30.542H98.5464H100.915V32.9106V35.2793H98.5464H96.1777V32.9106ZM99.2607 33.6626C99.178 33.422 99.1329 33.2039 99.1705 33.1813C99.2006 33.1588 99.3961 33.0159 99.5991 32.873L99.9751 32.6099L99.4412 32.5873L98.9148 32.5647L98.8171 32.2865C98.5539 31.5045 98.5765 31.512 98.396 32.0534L98.2306 32.5347L97.7117 32.5723L97.1929 32.6099L97.5914 32.8956C97.802 33.061 97.9824 33.2265 97.9824 33.2791C97.9824 33.3317 97.9298 33.5348 97.8621 33.7303C97.7944 33.9258 97.7568 34.0987 97.7794 34.1213C97.802 34.1438 97.9899 34.0386 98.2005 33.8882L98.5765 33.6175L98.975 33.9183C99.1931 34.0837 99.3811 34.1965 99.3961 34.1664C99.4036 34.1288 99.3435 33.9107 99.2607 33.6626V33.6626Z" fill="#4E5F6E"/>
<path d="M40.1177 54.7705C39.7718 54.6878 39.6439 54.59 39.5161 54.2817L39.4033 54.0035H39.7041C39.9146 54.0035 40.0049 54.0336 40.0049 54.1163C40.0049 54.3494 40.6967 54.4848 40.8922 54.2893C41.0125 54.1689 41.005 53.8155 40.8922 53.7178C40.8396 53.6802 40.5989 53.5975 40.3583 53.5448C40.1102 53.4922 39.8319 53.3869 39.7342 53.3117C39.5161 53.1312 39.4334 52.7402 39.5537 52.3868C39.7643 51.7401 40.9975 51.6273 41.3584 52.2214C41.4411 52.3567 41.5088 52.5071 41.5088 52.5598C41.5088 52.7252 41.0727 52.665 40.8771 52.462C40.7719 52.3567 40.5989 52.274 40.4937 52.274C40.3057 52.274 40.0049 52.5071 40.0049 52.65C40.0049 52.8004 40.3057 53.0185 40.5839 53.0636C41.3058 53.1839 41.5088 53.3869 41.5088 53.9734C41.5088 54.2893 41.4712 54.3945 41.3133 54.56C41.2005 54.6652 41.0576 54.7555 40.9899 54.7555C40.9223 54.7555 40.7493 54.7705 40.6064 54.7855C40.4636 54.8006 40.2455 54.7931 40.1177 54.7705Z" fill="#4E5F6E"/>
<path d="M69.4046 54.7765C69.0737 54.7089 68.8105 54.4607 68.7203 54.1299C68.6 53.6636 68.6677 52.5132 68.8331 52.2575C69.0211 51.9717 69.5324 51.7913 69.9761 51.859C70.3821 51.9191 70.8333 52.2951 70.8333 52.5658C70.8333 52.6936 70.7882 52.7237 70.5701 52.7237C70.3971 52.7237 70.3069 52.6861 70.3069 52.6184C70.3069 52.4455 70.0964 52.3252 69.773 52.3252C69.2843 52.3252 69.2166 52.453 69.2166 53.3328C69.2166 54.0396 69.2316 54.0998 69.397 54.2351C69.758 54.5284 70.2768 54.3329 70.322 53.8892C70.3445 53.6862 70.322 53.6636 70.1039 53.6411C69.8858 53.6185 69.8557 53.5884 69.8557 53.3929V53.1749H70.3445H70.8333V53.6636C70.8333 54.1975 70.7355 54.4758 70.5024 54.6337C70.322 54.7465 69.6903 54.8292 69.4046 54.7765V54.7765Z" fill="#4E5F6E"/>
<path d="M76.8122 54.777C76.4738 54.7319 76.2482 54.5966 76.1279 54.3635C75.97 54.0627 75.9925 54.0025 76.2933 54.0025C76.4963 54.0025 76.6016 54.0552 76.7144 54.198C76.8422 54.356 76.9174 54.386 77.2032 54.3635C77.6318 54.3334 77.7972 54.1454 77.6543 53.8521C77.5791 53.7018 77.4513 53.6416 77.0001 53.5363C76.3459 53.3859 76.0978 53.1754 76.0978 52.7618C76.0978 52.3332 76.2181 52.1302 76.564 51.9723C77.1881 51.6865 77.9852 51.8595 78.1732 52.3182C78.3161 52.6565 78.3161 52.649 78.0153 52.649C77.8423 52.649 77.6995 52.5889 77.5716 52.461C77.2408 52.1302 76.6994 52.2505 76.6994 52.6565C76.6994 52.8972 76.8573 52.9949 77.3761 53.0776C77.6919 53.1303 78.0604 53.3032 78.1807 53.4686C78.2333 53.5363 78.2785 53.7393 78.2785 53.9273C78.2785 54.2808 78.1431 54.5515 77.9175 54.6718C77.7521 54.7545 77.1054 54.8222 76.8122 54.777Z" fill="#4E5F6E"/>
<path d="M81.2121 54.7779C80.8211 54.7103 80.6256 54.5899 80.4677 54.2967C80.3173 54.0335 80.3023 53.9132 80.3248 53.2515C80.3399 52.6424 80.3775 52.4694 80.5053 52.2965C80.7309 51.9882 81.0392 51.8604 81.5505 51.8604C82.0618 51.8604 82.3701 51.9882 82.5957 52.2965C82.7311 52.4845 82.7536 52.6198 82.7536 53.3191C82.7536 54.2064 82.6709 54.4696 82.34 54.6426C82.122 54.7479 81.4903 54.8306 81.2121 54.7779V54.7779ZM82.0017 54.1914C82.1746 54.026 82.1897 53.9508 82.1897 53.3417C82.1897 52.4845 82.0844 52.3266 81.558 52.3266C81.0166 52.3266 80.9489 52.4318 80.9489 53.3342C80.9489 54.041 80.964 54.1012 81.1294 54.2365C81.3776 54.4396 81.7761 54.4245 82.0017 54.1914V54.1914Z" fill="#4E5F6E"/>
<path d="M89.5266 54.7619C89.3311 54.7168 89.1656 54.619 89.0528 54.4837C88.8874 54.2731 88.8799 54.2055 88.8799 53.0851V51.897H89.1355H89.3912L89.4213 52.9948C89.4438 54.04 89.4514 54.1002 89.6243 54.2355C89.8499 54.416 90.1657 54.416 90.3913 54.2355C90.5643 54.1002 90.5718 54.04 90.5943 52.9948L90.6169 51.897H90.8801H91.1357V53.0249C91.1357 54.2055 91.0831 54.4461 90.7974 54.6341C90.5943 54.7694 89.9101 54.8371 89.5266 54.7619V54.7619Z" fill="#4E5F6E"/>
<path d="M100.988 54.7629C100.319 54.6275 100.161 54.3418 100.161 53.3191C100.161 52.2062 100.439 51.8679 101.364 51.8604C101.913 51.8604 102.214 51.9807 102.447 52.2965C102.582 52.4845 102.605 52.6198 102.605 53.3191C102.605 54.1764 102.53 54.4095 102.169 54.6351C101.958 54.7704 101.334 54.8381 100.988 54.7629V54.7629ZM101.823 54.2365C101.981 54.1087 102.003 54.0185 102.026 53.4545C102.071 52.4995 101.846 52.1987 101.191 52.3266C100.845 52.3942 100.763 52.6048 100.763 53.3718C100.763 54.0335 100.77 54.0786 100.958 54.2215C101.206 54.417 101.59 54.4245 101.823 54.2365Z" fill="#4E5F6E"/>
<path d="M109.983 54.7551C109.659 54.6949 109.336 54.3866 109.336 54.146C109.336 53.9279 109.757 53.9505 109.983 54.1911C110.208 54.4393 110.674 54.4543 110.885 54.2212C111.013 54.0858 111.013 54.0482 110.915 53.8678C110.825 53.7174 110.689 53.6497 110.313 53.552C109.674 53.3865 109.524 53.3038 109.411 53.0331C109.103 52.2736 109.93 51.6345 110.877 51.8977C111.253 52.0029 111.404 52.1458 111.479 52.4466C111.532 52.6421 111.524 52.6496 111.223 52.6496C111.005 52.6496 110.915 52.6195 110.915 52.5368C110.915 52.2887 110.389 52.1909 110.103 52.394C109.742 52.6421 110.013 53.003 110.629 53.0782C111.223 53.1534 111.592 53.4843 111.592 53.9279C111.592 54.2062 111.366 54.5897 111.156 54.6724C110.855 54.7852 110.313 54.8303 109.983 54.7551V54.7551Z" fill="#4E5F6E"/>
<path d="M44.4273 53.5738L44.4048 52.3857L44.0138 52.3632C43.6303 52.3406 43.6152 52.3331 43.6152 52.115V51.897H44.7056H45.7959V52.115C45.7959 52.3331 45.7809 52.3406 45.4049 52.3632L45.0063 52.3857L44.9838 53.5738L44.9612 54.7544H44.7056H44.4499L44.4273 53.5738Z" fill="#4E5F6E"/>
<path d="M47.5455 54.6642C47.5605 54.6115 47.7786 53.9648 48.0192 53.2354L48.4629 51.897H48.7637H49.0645L49.5081 53.2354C49.7487 53.9648 49.9668 54.6115 49.9818 54.6642C50.0119 54.7243 49.9292 54.7544 49.7111 54.7544C49.4931 54.7544 49.4028 54.7243 49.4028 54.6416C49.4028 54.5814 49.3652 54.4461 49.3126 54.3408C49.2374 54.1679 49.1923 54.1528 48.7486 54.1528H48.2749L48.1546 54.4536C48.0418 54.7243 48.0042 54.7544 47.7711 54.7544C47.5906 54.7544 47.5154 54.7243 47.5455 54.6642V54.6642ZM49.1021 53.6565C49.1021 53.461 48.7787 52.5662 48.7261 52.6188C48.6584 52.694 48.4253 53.446 48.4253 53.6039C48.4253 53.6716 48.5306 53.7017 48.7637 53.7017C48.9517 53.7017 49.1021 53.6791 49.1021 53.6565Z" fill="#4E5F6E"/>
<path d="M52.3359 53.3257V51.897H53.2759H54.2158V52.1226V52.3481H53.5391H52.8623V52.7241V53.1001H53.4263H53.9902V53.3257V53.5513H53.4263H52.8623V54.1528V54.7544H52.5991H52.3359V53.3257Z" fill="#4E5F6E"/>
<path d="M56.5469 53.3257V51.897H57.5244H58.502V52.1226V52.3406L57.8102 52.3632L57.1108 52.3857V52.7241V53.0625L57.6598 53.0851L58.2012 53.1076V53.3257V53.5437L57.6598 53.5663L57.1108 53.5889L57.0883 54.1754L57.0657 54.7544H56.8101H56.5469V53.3257Z" fill="#4E5F6E"/>
<path d="M60.833 53.3257V51.897H61.0962H61.3594V53.3257V54.7544H61.0962H60.833V53.3257Z" fill="#4E5F6E"/>
<path d="M63.9932 53.3257V51.897H64.2789C64.5346 51.897 64.5797 51.927 64.715 52.1827C65.2038 53.1302 65.5347 53.7017 65.5873 53.7017C65.6174 53.7017 65.6475 53.2956 65.6475 52.7993V51.897H65.9106H66.1738V53.3257V54.7544H65.8806C65.67 54.7544 65.5723 54.7168 65.5422 54.6266C65.4219 54.3107 64.5646 52.7993 64.512 52.7993C64.4744 52.7993 64.4443 53.243 64.4443 53.7769V54.7544H64.2188H63.9932V53.3257V53.3257Z" fill="#4E5F6E"/>
<path d="M84.9717 53.3257V51.897H85.2725H85.5732V53.1001V54.3032H86.25H86.9268V54.5288V54.7544H85.9492H84.9717V53.3257Z" fill="#4E5F6E"/>
<path d="M93.9039 53.5738L93.8813 52.3857L93.4903 52.3632C93.1068 52.3406 93.0918 52.3331 93.0918 52.115V51.897H94.2197H95.3477V52.1226C95.3477 52.3481 95.3401 52.3481 94.9341 52.3481H94.5205V53.5513V54.7544H94.2197H93.9265L93.9039 53.5738V53.5738Z" fill="#4E5F6E"/>
<path d="M97.3779 53.3257V51.897H97.6411H97.9043V53.3257V54.7544H97.6411H97.3779V53.3257Z" fill="#4E5F6E"/>
<path d="M104.824 53.3257V51.897H105.155H105.486L105.839 52.5211C106.042 52.8595 106.268 53.2655 106.358 53.4159C106.448 53.5738 106.539 53.7017 106.576 53.7017C106.606 53.7017 106.629 53.2956 106.629 52.7993V51.897H106.93H107.23V53.3332V54.7619L106.915 54.7394L106.599 54.7168L106.042 53.7618C105.734 53.2279 105.456 52.8219 105.418 52.8444C105.381 52.867 105.351 53.3031 105.351 53.822V54.7544H105.087H104.824V53.3257Z" fill="#4E5F6E"/>
<path d="M96.1748 42.6855V37.0083H96.9268H97.6787V42.6855V48.3628H96.9268H96.1748V42.6855Z" fill="#4E5F6E"/>
<path d="M99.4092 42.6855V37.0083H100.161H100.913V42.6855V48.3628H100.161H99.4092V42.6855Z" fill="#4E5F6E"/>
<path d="M102.641 39.4526V30.542H103.393H104.145V39.4526V48.3633H103.393H102.641V39.4526Z" fill="#4E5F6E"/>
<path d="M105.875 39.4526V30.542H106.627H107.379V39.4526V48.3633H106.627H105.875V39.4526Z" fill="#4E5F6E"/>
</svg>
